<svg width="22" height="22" viewBox="0 0 22 22" fill="none" xmlns="http://www.w3.org/2000/svg">
<path d="M14.2783 5.85315H7.72132C6.67473 5.85315 5.82324 6.70464 5.82324 7.75123V14.3082C5.82324 15.3548 6.67473 16.2066 7.72132 16.2066H14.2783C15.3249 16.2066 16.1767 15.3551 16.1767 14.3082V7.75123C16.1767 6.70464 15.3252 5.85315 14.2783 5.85315ZM10.9998 14.4381C9.12062 14.4381 7.59166 12.9092 7.59166 11.0297C7.59166 9.15053 9.12062 7.62157 10.9998 7.62157C12.8793 7.62157 14.4082 9.15053 14.4082 11.0297C14.4082 12.9089 12.879 14.4381 10.9998 14.4381ZM14.5178 8.32624C14.0729 8.32624 13.7112 7.96447 13.7112 7.51985C13.7112 7.07524 14.0729 6.71346 14.5178 6.71346C14.9624 6.71346 15.3242 7.07524 15.3242 7.51985C15.3242 7.96447 14.9624 8.32624 14.5178 8.32624Z" fill="white"/>
<path d="M11.0004 9.06177C9.91558 9.06177 9.03223 9.94463 9.03223 11.0295C9.03223 12.1148 9.91558 12.9979 11.0004 12.9979C12.0857 12.9979 12.9683 12.1148 12.9683 11.0295C12.9683 9.94487 12.0855 9.06177 11.0004 9.06177Z" fill="white"/>
<path d="M11 0C4.92511 0 0 4.92511 0 11C0 17.0749 4.92511 22 11 22C17.0749 22 22 17.0749 22 11C22 4.92511 17.0749 0 11 0ZM17.6168 14.3082C17.6168 16.1491 16.1195 17.6465 14.2785 17.6465H7.7215C5.88077 17.6465 4.38319 16.1491 4.38319 14.3082V7.75115C4.38319 5.91043 5.88077 4.41284 7.7215 4.41284H14.2785C16.1195 4.41284 17.6168 5.91043 17.6168 7.75115V14.3082Z" fill="white"/>
</svg>
