<svg width="22" height="22" viewBox="0 0 22 22" fill="none" xmlns="http://www.w3.org/2000/svg">
<g clip-path="url(#clip0)">
<path d="M11 21.999C17.0751 21.999 22 17.0742 22 10.999C22 4.92389 17.0751 -0.000976562 11 -0.000976562C4.92487 -0.000976562 0 4.92389 0 10.999C0 17.0742 4.92487 21.999 11 21.999Z" fill="white"/>
<path d="M17.5724 11.8849V16.42H14.9431V12.1888C14.9431 11.1265 14.5634 10.4009 13.6114 10.4009C12.8849 10.4009 12.4534 10.8894 12.2628 11.3623C12.1935 11.5314 12.1757 11.7661 12.1757 12.0032V16.4198H9.5462C9.5462 16.4198 9.58149 9.25364 9.5462 8.51185H12.1759V9.63248C12.1706 9.6413 12.1632 9.64993 12.1585 9.65836H12.1759V9.63248C12.5253 9.09481 13.1485 8.32616 14.5456 8.32616C16.2755 8.32616 17.5724 9.4564 17.5724 11.8849ZM6.79551 4.69995C5.89607 4.69995 5.30762 5.29036 5.30762 6.06608C5.30762 6.82532 5.87901 7.43279 6.761 7.43279H6.77806C7.69515 7.43279 8.26537 6.82532 8.26537 6.06608C8.24792 5.29036 7.69515 4.69995 6.79551 4.69995ZM5.4639 16.42H8.09242V8.51185H5.4639V16.42Z" fill="#111111"/>
</g>
<defs>
<clipPath id="clip0">
<rect width="22" height="22" fill="white"/>
</clipPath>
</defs>
</svg>
