<svg width="22" height="22" viewBox="0 0 22 22" fill="none" xmlns="http://www.w3.org/2000/svg">
<path d="M11 0C4.9258 0 0 4.9258 0 11C0 17.0742 4.9258 22 11 22C17.0742 22 22 17.0742 22 11C22 4.9258 17.0742 0 11 0ZM11.2331 17.4045C11.233 17.4045 11.2333 17.4045 11.2331 17.4045H11.2305C10.1285 17.404 9.04576 17.1277 8.08417 16.6034L4.59413 17.5187L5.5282 14.108C4.95198 13.11 4.64885 11.9777 4.64935 10.8177C4.65086 7.18887 7.60429 4.23662 11.2331 4.23662C12.9942 4.23729 14.6473 4.92278 15.8902 6.16669C17.1333 7.41077 17.8174 9.06439 17.8168 10.8229C17.8152 14.4519 14.8615 17.4045 11.2331 17.4045Z" fill="white"/>
<path d="M11.2352 5.34839C8.21684 5.34839 5.76209 7.80214 5.76074 10.8183C5.76041 11.8519 6.04977 12.8585 6.59746 13.7295L6.72754 13.9364L6.17465 15.9551L8.24571 15.412L8.44562 15.5305C9.28569 16.029 10.2488 16.2927 11.2307 16.293H11.2329C14.2489 16.293 16.7037 13.8391 16.705 10.8227C16.7055 9.36093 16.1369 7.9866 15.1038 6.95267C14.0707 5.91873 12.6967 5.34889 11.2352 5.34839ZM14.4539 13.1702C14.3167 13.5542 13.6596 13.9049 13.3436 13.9522C13.0601 13.9945 12.7015 14.0121 12.3074 13.8871C12.0684 13.8112 11.7621 13.71 11.3695 13.5406C9.71941 12.8283 8.64166 11.1673 8.55942 11.0575C8.47717 10.9478 7.8877 10.1658 7.8877 9.35623C7.8877 8.54688 8.31268 8.14891 8.46341 7.98442C8.6143 7.81976 8.79256 7.77864 8.90216 7.77864C9.01177 7.77864 9.12154 7.77965 9.21738 7.78435C9.31842 7.78938 9.45404 7.74591 9.58748 8.06667C9.72461 8.39598 10.0536 9.20534 10.0947 9.28758C10.1358 9.37 10.1632 9.466 10.1085 9.57578C10.0536 9.68555 9.87131 9.92238 9.69725 10.1382C9.62424 10.2287 9.52907 10.3093 9.62508 10.4739C9.72092 10.6384 10.0512 11.177 10.5402 11.6131C11.1686 12.1734 11.6987 12.3469 11.8631 12.4293C12.0275 12.5116 12.1235 12.4978 12.2195 12.3882C12.3153 12.2784 12.6307 11.908 12.7403 11.7433C12.8499 11.5787 12.9597 11.6062 13.1104 11.6611C13.2613 11.7158 14.07 12.1138 14.2345 12.196C14.399 12.2784 14.5086 12.3196 14.5497 12.3882C14.591 12.4569 14.591 12.786 14.4539 13.1702Z" fill="white"/>
</svg>
